
<svg xmlns="http://www.w3.org/2000/svg" version="1.1" xmlns:xlink="http://www.w3.org/1999/xlink" preserveAspectRatio="none" x="0px" y="0px" width="638px" height="150px" viewBox="0 0 638 150">
<defs>
<g id="Logo_0_Layer0_0_FILL">
<path fill="#000000" stroke="none" d="
M 1.45 0.3
L 0 0.3 0 8.05 1.45 8.05 1.45 0.3
M 5.35 2.15
L 5.4 2.15 7.6 8.05 8.85 8.05 5.95 0.3 3.95 0.3 3.95 8.05 5.35 8.05 5.35 2.15
M 11.35 8.05
L 13.55 2.15 13.6 2.15 13.6 8.05 15 8.05 15 0.3 12.95 0.3 10.05 8.05 11.35 8.05
M 22.1 0.3
L 20.45 0.3 17.45 8.05 25.1 8.05 22.1 0.3
M 21.25 1.65
L 23.1 6.8 19.35 6.8 21.25 1.65
M 35.6 8
L 37.1 8 37.1 5.5 32.25 5.5 32.25 6.75 35.8 6.75
Q 35.8 7.4 35.6 8
M 37 3.7
Q 36.85 2.7 36.4 2 35.95 1.3 35.35 0.85 34.7 0.4 33.9 0.2 33.1 0 32.2 0 30.9 0 29.9 0.5 28.95 1 28.25 1.8 27.6 2.6 27.3 3.7 26.95 4.8 26.95 6 26.95 7.05 27.25 8
L 28.85 8
Q 28.75 7.8 28.65 7.6 28.4 6.8 28.4 5.95 28.4 5.05 28.65 4.2 28.85 3.35 29.3 2.7 29.75 2.05 30.5 1.65 31.2 1.25 32.2 1.25 32.85 1.25 33.4 1.4 33.95 1.55 34.35 1.85 34.8 2.15 35.1 2.6 35.4 3.05 35.5 3.7
L 37 3.7
M 40.75 8.05
L 40.75 0.3 39.3 0.3 39.3 8.05 40.75 8.05
M 44.65 2.5
L 44.7 2.5 48.3 8.05 49.85 8.05 44.8 0.3 43.25 0.3 43.25 8.05 44.65 8.05 44.65 2.5
M 52.1 8.05
L 52.1 0.3 50.7 0.3 50.7 8.05 52.1 8.05 Z"/>
</g>

<g id="Logo_0_Layer0_1_FILL">
<path fill="#000000" stroke="none" d="
M 8.9 12
L 9.45 10.4 10.05 12 11.35 12 10.1 8.65 8.85 8.65 7.6 12 8.9 12
M 3.95 8.65
L 3.95 12 5.35 12 5.35 8.65 3.95 8.65
M 1.45 12
L 1.45 8.65 0 8.65 0 12 1.45 12
M 17.45 12
L 18.9 12 17.65 8.65 16.15 8.65 17.45 12
M 15 12
L 15 8.65 13.6 8.65 13.6 12 15 12
M 23.6 12
L 25.15 12 26.45 8.65 24.8 8.65 23.6 12
M 30.55 10
Q 31.20625 9.671875 32.05 9.65
L 28.75 9.65
Q 28.5107421875 9.8591796875 28.3 10.1 27.65 10.85 27.3 11.85 27.25 11.95 27.25 12
L 28.8 12
Q 29.05 11.4 29.35 10.95 29.85 10.35 30.55 10
M 35.4 9.65
L 32.3 9.65
Q 33.09375 9.665625 33.75 9.9 34.4 10.2 34.85 10.65 35.3 11.15 35.55 11.8 35.55 11.9 35.6 12
L 37.05 12 37.05 8.65 36.15 8.65 35.75 10.05
Q 35.594140625 9.8341796875 35.4 9.65
M 43.25 12
L 44.65 12 44.65 8.65 43.25 8.65 43.25 12
M 40.75 12
L 40.75 8.65 39.3 8.65 39.3 12 40.75 12
M 50.7 10.75
L 50.7 12 52.1 12 52.1 8.65 50.5 8.65 48.3 12 49.85 12 50.65 10.75 50.7 10.75 Z"/>
</g>
</defs>

<g transform="matrix( 12.165069580078125, 0, 0, 12.165069580078125, 2,2) ">
<g transform="matrix( 1, 0, 0, 1, 0,0) ">
<use xlink:href="#Logo_0_Layer0_0_FILL"/>
</g>

<g transform="matrix( 1, 0, 0, 1, 0,0) ">
<use xlink:href="#Logo_0_Layer0_1_FILL"/>
</g>
</g>
</svg>
